# xmcd
#
# Track frame offsets:
#	150
#	17155
#	28155
#	46412
#	63024
#	78113
#	95493
#	109195
#	124340
#	141979
#	161226
#	178821
#	196608
#	212380
#
# Disc length: 2982 seconds
#
# Revision: 4
# Processed by: cddbd v1.5.2PL0 Copyright (c) Steve Scherf et al.
# Submitted via: audiograbber 1.83.01
#
DISCID=bc0ba40e
DTITLE=Various Artist - Hot Hits Country Vol. 59
DYEAR=1996
DGENRE=Country
TTITLE0=Brooks and Dunn - Mama Don't Get Dressed Up For Nothing
TTITLE1=Randy Travis - Would I 
TTITLE2=Patty Loveless - Lonely Too Long
TTITLE3=Tracy Byrd - Big Love
TTITLE4=Lee Roy Parnell - We All Get Lucky Sometimes
TTITLE5=Deana Carter - Strawberry Wine
TTITLE6=Trace Adkins - Every Light In The House
TTITLE7=Suzy Bogguss - No Way Out
TTITLE8=Rhett Akins - Love You Back
TTITLE9=Wynonna - My Angel Is Here
TTITLE10=Western Flyer - What Will You Do With Me
TTITLE11=Brady Seals - Another You,  Another Me
TTITLE12=Martina McBride - Swingin' Doors
TTITLE13=BR5 49 - Cherokee Boogie
EXTD=
EXTT0=
EXTT1=
EXTT2=
EXTT3=
EXTT4=
EXTT5=
EXTT6=
EXTT7=
EXTT8=
EXTT9=
EXTT10=
EXTT11=
EXTT12=
EXTT13=
PLAYORDER=
